<svg width="87" height="87" viewBox="0 0 87 87" fill="none" xmlns="http://www.w3.org/2000/svg">
<circle cx="43.5" cy="43.5" r="42.5" stroke="black" stroke-width="2"/>
<path fill-rule="evenodd" clip-rule="evenodd" d="M43 19C56.7979 19 68 30.2021 68 44C68 57.7979 56.7979 69 43 69C29.2021 69 18 57.7979 18 44C18 30.2021 29.2021 19 43 19ZM27.6604 58.0917C31.4688 62.2354 36.9333 64.8333 43 64.8333H43.0083L33.3875 48.1708L27.6604 58.0917ZM61.0417 54.4167H41.8062L47.5333 64.3375C53.2979 63.0562 58.1667 59.3833 61.0417 54.4167ZM23.1229 37.75C22.5021 39.7229 22.1667 41.8229 22.1667 44C22.1667 47.7979 23.1854 51.3604 24.9646 54.4271L30.9833 44.0042L30.9812 44L30.9875 43.9958L34.5938 37.75H23.1229ZM61.0458 33.5896L51.4271 50.25H62.8771C63.4979 48.2771 63.8333 46.1771 63.8333 44C63.8333 40.2083 62.8187 36.6542 61.0458 33.5896ZM46.6146 37.75H39.4042L35.7938 44.0042L39.4 50.25H46.6167L50.2229 44.0021L46.6146 37.75ZM52.6292 39.8354L58.3521 29.9229C54.5437 25.7729 49.0771 23.1687 43.0063 23.1667L52.6292 39.8354ZM38.4792 23.6604C32.7104 24.9375 27.8354 28.6125 24.9583 33.5833H44.2083L38.4792 23.6604Z" fill="black"/>
</svg>
